# xmcd CD database file generated by LOLA_Freedb v0.9beta0
# 
# Track frame offsets:
#      150
#      15813
#      29598
#      41528
#      57302
#      71759
#      87644
#      100328
#      117839
#      130708
# 
# Disc length: 1909 seconds
# 
# Revision: 0 
# Processed by: cddbd v1.5.2PL0 Copyright (c) Steve Scherf et al.
# Submitted via: LOLA_Freedb v0.9beta0
# 
DISCID=8107730a
DTITLE=Ed Bruce - Home Coming
DYEAR=1984
DGENRE=
TTITLE0=Ed Bruce - You Turn Me On
TTITLE1=Ed Bruce - That's How It Goes
TTITLE2=Ed Bruce - I Think I Could Love You
TTITLE3=Ed Bruce - Texas Girl I'm Closing In On You
TTITLE4=Ed Bruce - The Great Divide
TTITLE5=Ed Bruce - When Givin' Up Was Easy
TTITLE6=Ed Bruce - If It Ain't Love
TTITLE7=Ed Bruce - The Migrant
TTITLE8=Ed Bruce - Old Loves Never Die
TTITLE9=Ed Bruce - Forever Lovin' Me
EXTD=
EXTT0=
EXTT1=
EXTT2=
EXTT3=
EXTT4=
EXTT5=
EXTT6=
EXTT7=
EXTT8=
EXTT9=
PLAYORDER=
